<svg width="100" height="150" viewBox="0 0 100 150" fill="none" xmlns="http://www.w3.org/2000/svg">
<rect width="100" height="150" rx="7.21563" fill="#3061BE"/>
<rect x="0.828125" y="2.50586" width="97.3454" height="38.2429" rx="13.367" fill="#3061BE"/>
<path d="M18.6455 27.4241V15.3599C18.6455 13.8508 19.4 13.0963 20.9091 13.0963H25.6104C28.2637 13.0963 30.4195 13.8508 32.0778 15.3599C33.7527 16.869 34.5901 18.8755 34.5901 21.3796C34.5901 23.9002 33.7527 25.915 32.0778 27.4241C30.4195 28.9331 28.272 29.6877 25.6353 29.6877H20.9091C19.4 29.6877 18.6455 28.9331 18.6455 27.4241ZM22.9239 25.9565H25.6104C27.0034 25.9565 28.1144 25.517 28.9436 24.6381C29.7893 23.7592 30.2122 22.673 30.2122 21.3796C30.2122 20.0032 29.8059 18.9004 28.9933 18.0712C28.1808 17.2421 27.0614 16.8275 25.6353 16.8275H22.9239V25.9565Z" fill="white"/>
<path d="M43.5092 19.0911C43.5092 19.6218 43.36 20.0612 43.0615 20.4094C42.7796 20.7411 42.3733 20.9401 41.8426 21.0064C40.6321 21.1557 39.8361 21.5122 39.4547 22.076V27.9962C39.4547 28.5269 39.264 28.9829 38.8825 29.3643C38.5177 29.7291 38.07 29.9115 37.5393 29.9115C37.0252 29.9115 36.5775 29.7208 36.1961 29.3394C35.8147 28.958 35.624 28.5103 35.624 27.9962V19.4393C35.624 18.8921 35.8064 18.4278 36.1712 18.0464C36.536 17.6484 36.9921 17.4494 37.5393 17.4494C38.0534 17.4494 38.4928 17.6069 38.8577 17.922C39.2225 18.2371 39.4298 18.6434 39.4795 19.1408C39.9936 18.3946 40.5077 17.8971 41.0218 17.6484C41.3368 17.4991 41.627 17.4245 41.8924 17.4245C42.3733 17.4245 42.763 17.5903 43.0615 17.922C43.36 18.2371 43.5092 18.6268 43.5092 19.0911Z" fill="white"/>
<path d="M42.0692 26.0062C42.5335 25.5419 43.0808 25.3097 43.7109 25.3097C44.3411 25.3097 44.8883 25.5419 45.3527 26.0062C45.817 26.4706 46.0492 27.0178 46.0492 27.648C46.0492 28.2781 45.817 28.8254 45.3527 29.2897C44.8883 29.754 44.3411 29.9862 43.7109 29.9862C43.0808 29.9862 42.5335 29.754 42.0692 29.2897C41.6049 28.8254 41.3727 28.2781 41.3727 27.648C41.3727 27.0178 41.6049 26.4706 42.0692 26.0062Z" fill="white"/>
<path d="M66.7272 20.229L62.1916 28.8704C62.1292 28.9888 62.0634 29.0999 61.9946 29.2026V29.2031C61.8285 29.4499 61.6446 29.6503 61.444 29.8015C61.4429 29.8021 61.4418 29.8032 61.4406 29.8038C61.3799 29.8451 61.3153 29.8836 61.2475 29.9196C60.8494 30.1303 60.4428 30.1945 60.0394 30.1142C60.0377 30.1142 60.0355 30.1136 60.0341 30.113C59.8806 30.0768 59.7281 30.0179 59.5766 29.9358C59.1046 29.6857 58.8008 29.3 58.6652 28.8107C58.535 28.3217 58.6326 27.7671 58.958 27.1477L60.3952 24.4096L63.5371 18.4248C63.8299 17.8705 64.2153 17.5118 64.6929 17.3541C65.1705 17.1911 65.6586 17.2346 66.1251 17.49C66.5918 17.7401 66.9011 18.115 67.0256 18.5987C67.1504 19.0771 67.0473 19.6258 66.7272 20.2293" fill="white"/>
<path d="M82.6129 20.229L78.077 28.8704C77.7975 29.4013 77.4537 29.7742 77.0527 29.9727C77.2333 29.8775 77.396 29.7477 77.5398 29.5825C77.8652 29.2129 78.0388 28.6804 78.0388 28.0119L78.0344 21.0689V21.0683L79.4222 18.4248C79.7154 17.8705 80.1004 17.5118 80.578 17.3541C81.0556 17.1964 81.5438 17.2346 82.0105 17.49C82.4772 17.7401 82.7862 18.115 82.911 18.5987C83.0359 19.0771 82.9328 19.6258 82.6126 20.2293" fill="white"/>
<path d="M76.3429 17.2694C76.3081 17.2677 76.2736 17.2666 76.2382 17.2666C75.7118 17.2666 75.2616 17.457 74.9197 17.8156C74.5778 18.1743 74.3989 18.6689 74.3989 19.2938L74.4034 26.3809L73.0968 28.87C72.7823 29.4679 72.386 29.8645 71.9196 30.0384C71.4367 30.2232 70.9538 30.1905 70.4818 29.9351C70.0098 29.6851 69.7058 29.2993 69.5704 28.81C69.4403 28.321 69.5378 27.7664 69.8635 27.1471L74.4426 18.4241C74.7358 17.8698 75.1208 17.5111 75.5981 17.3534C75.845 17.2719 76.0952 17.2426 76.3432 17.2691" fill="white"/>
<path d="M53.2341 29.0248L48.5948 20.2614C48.2694 19.6474 48.1716 19.0931 48.302 18.5985C48.4321 18.1039 48.7361 17.7179 49.2081 17.4734C49.6801 17.2233 50.1686 17.1909 50.6459 17.3701C51.1126 17.5496 51.5085 17.9462 51.8231 18.5387L54.899 24.3991L53.4565 27.1475C53.131 27.7671 53.0332 28.3215 53.1636 28.8105" fill="white"/>
<path d="M57.6444 19.1691L55.5772 23.1066L54.0851 20.2616C53.7596 19.6475 53.6618 19.0932 53.7922 18.5986C53.9224 18.104 54.2263 17.718 54.6984 17.4735C55.1704 17.2234 55.6588 17.1907 56.1361 17.3702C56.6028 17.5497 56.9988 17.9463 57.3133 18.5389L57.6444 19.1694V19.1691Z" fill="white"/>
<path d="M58.7879 29.1359L57.6455 27.0503L59.7138 23.1106L60.3954 24.4096L58.9582 27.1477C58.6327 27.7674 58.5349 28.3217 58.6653 28.8107" fill="white"/>
<path d="M78.0391 28.0115C78.0391 28.6799 77.8655 29.2125 77.5401 29.582C77.3963 29.7473 77.2336 29.8771 77.0527 29.9722C77.051 29.9728 77.0499 29.9739 77.0483 29.9745C77.0419 29.9778 77.0352 29.9809 77.0288 29.9837C76.7928 30.1026 76.5269 30.1615 76.2324 30.1581C75.7008 30.1472 75.2558 29.9678 74.9139 29.5929C74.5776 29.2234 74.404 28.6852 74.404 28.0006L74.4029 26.3809L74.3984 19.2938C74.3984 18.6689 74.5776 18.1743 74.9192 17.8156C75.2611 17.457 75.7114 17.2666 76.2377 17.2666C76.2731 17.2666 76.3076 17.2677 76.3425 17.2694C76.8231 17.2928 77.231 17.4818 77.5398 17.8265C77.8708 18.1961 78.0335 18.7177 78.0335 19.3971L78.0346 21.0679V21.0684L78.0391 28.0115Z" fill="white"/>
<path d="M70.7635 17.2505C71.7703 17.2505 72.5864 18.068 72.5864 19.0767C72.5864 20.0855 71.7703 20.903 70.7635 20.903C69.7568 20.903 68.9404 20.0855 68.9404 19.0767C68.9404 18.068 69.7566 17.2505 70.7635 17.2505Z" fill="white"/>
<path d="M64.1661 28.8107C64.036 28.3216 64.1335 27.767 64.459 27.1477L66.8842 22.4736C67.1773 21.9193 67.5624 21.5606 68.04 21.4029C68.5176 21.2399 69.0058 21.2835 69.4722 21.5388C69.9389 21.7889 70.2426 22.1638 70.3727 22.6475C70.4976 23.1259 70.3945 23.6746 70.0743 24.2781L67.6925 28.8651C67.378 29.463 66.9817 29.8596 66.5153 30.0335C66.0324 30.2182 65.5496 30.1856 65.0775 29.9302C64.6055 29.6801 64.2963 29.2997 64.1661 28.8107Z" fill="white"/>
<path d="M61.2258 20.2289L59.7136 23.11V23.1105L57.6453 27.0503L56.6899 28.8704C56.6431 28.9594 56.5943 29.0437 56.5439 29.1235C56.3394 29.449 56.105 29.6996 55.8434 29.8707C55.8423 29.8713 55.8412 29.8724 55.8395 29.8729C55.8125 29.8886 55.7846 29.9045 55.7565 29.919C55.3315 30.144 54.8977 30.2015 54.4675 30.0957C54.4664 30.0957 54.4653 30.0951 54.4641 30.0951C54.3335 30.058 54.2036 30.005 54.0746 29.9352C53.5973 29.6851 53.2933 29.2994 53.1632 28.8101C53.0331 28.3211 53.1306 27.7665 53.456 27.1471L54.8988 24.3986L55.5776 23.1063L57.6448 19.1689L58.0354 18.4242C58.3283 17.8698 58.7136 17.5112 59.1912 17.3535C59.6685 17.1905 60.157 17.234 60.6234 17.4894C61.0901 17.7395 61.3994 18.1144 61.5239 18.5981C61.6488 19.0762 61.5457 19.6252 61.2255 20.2284" fill="white"/>
</svg>
