<svg width="39" height="15" viewBox="0 0 39 15" fill="none" xmlns="http://www.w3.org/2000/svg">
<path d="M20.3559 3.52397L15.3599 13.0919C15.2911 13.2229 15.2187 13.3459 15.1429 13.4596V13.4603C14.9599 13.7334 14.7574 13.9553 14.5364 14.1228C14.5352 14.1235 14.5339 14.1247 14.5327 14.1253C14.4658 14.1711 14.3946 14.2137 14.32 14.2536C13.8814 14.4869 13.4336 14.558 12.9892 14.469C12.9874 14.469 12.9849 14.4683 12.9834 14.4677C12.8143 14.4276 12.6464 14.3623 12.4794 14.2715C11.9595 13.9946 11.625 13.5675 11.4755 13.0257C11.3322 12.4843 11.4396 11.8702 11.7981 11.1845L13.3812 8.15278L16.842 1.52632C17.1645 0.912567 17.589 0.51545 18.1151 0.340842C18.6411 0.160362 19.1788 0.208572 19.6926 0.491345C20.2067 0.768245 20.5474 1.18329 20.6846 1.71886C20.8221 2.24855 20.7085 2.85613 20.3559 3.52427" fill="white"/>
<path d="M37.854 3.52434L32.8577 13.0923C32.5499 13.6801 32.1711 14.0929 31.7295 14.3127C31.9284 14.2073 32.1076 14.0636 32.266 13.8806C32.6245 13.4715 32.8157 12.8818 32.8157 12.1416L32.8108 4.45425V4.45363L34.3395 1.5267C34.6624 0.912947 35.0866 0.515829 35.6126 0.341221C36.1387 0.166613 36.6764 0.208952 37.1905 0.491724C37.7046 0.768625 38.0449 1.18367 38.1824 1.71924C38.3199 2.24893 38.2064 2.85651 37.8537 3.52465" fill="white"/>
<path d="M30.9472 0.247151C30.9088 0.245297 30.8707 0.24406 30.8318 0.24406C30.252 0.24406 29.756 0.454826 29.3794 0.851944C29.0028 1.24906 28.8058 1.79668 28.8058 2.48863L28.8107 10.3355L27.3716 13.0915C27.0251 13.7535 26.5886 14.1926 26.0748 14.3852C25.543 14.5898 25.0111 14.5536 24.4911 14.2708C23.9712 13.9939 23.6364 13.5668 23.4872 13.0251C23.3439 12.4836 23.4513 11.8696 23.8101 11.1838L28.854 1.52565C29.1769 0.911898 29.601 0.51478 30.1268 0.340172C30.3987 0.249932 30.6743 0.217483 30.9475 0.246842" fill="white"/>
<path d="M5.49335 13.2632L0.383167 3.56027C0.0246868 2.88038 -0.0830407 2.26663 0.0605968 1.71901C0.203927 1.17139 0.538774 0.743983 1.05869 0.473263C1.57861 0.196362 2.11664 0.160514 2.64239 0.358918C3.15648 0.557632 3.59261 0.996779 3.93912 1.65287L7.32718 8.1415L5.73827 11.1846C5.37979 11.8707 5.27206 12.4845 5.4157 13.0259" fill="white"/>
<path d="M10.3516 2.35082L8.07456 6.71046L6.43102 3.56041C6.07254 2.88051 5.96481 2.26676 6.10845 1.71914C6.25178 1.17152 6.58663 0.744114 7.10654 0.473394C7.62646 0.196493 8.16449 0.160336 8.69024 0.359049C9.20433 0.557762 9.64046 0.99691 9.98697 1.653L10.3516 2.35113V2.35082Z" fill="white"/>
<path d="M11.6109 13.3859L10.3525 11.0767L12.6308 6.7146L13.3815 8.15288L11.7984 11.1846C11.4399 11.8706 11.3322 12.4844 11.4759 13.0258" fill="white"/>
<path d="M32.8168 12.141C32.8168 12.8811 32.6256 13.4708 32.2671 13.88C32.1088 14.0629 31.9295 14.2066 31.7303 14.312C31.7285 14.3126 31.7273 14.3139 31.7254 14.3145C31.7184 14.3182 31.711 14.3216 31.7039 14.3247C31.444 14.4563 31.1512 14.5215 30.8268 14.5178C30.2412 14.5058 29.751 14.3071 29.3744 13.892C29.004 13.4828 28.8128 12.887 28.8128 12.1289L28.8115 10.3356L28.8066 2.48871C28.8066 1.79676 29.004 1.24914 29.3803 0.852024C29.7569 0.454907 30.2528 0.244141 30.8326 0.244141C30.8716 0.244141 30.9096 0.245377 30.948 0.247231C31.4774 0.273191 31.9268 0.482411 32.2668 0.864077C32.6315 1.27325 32.8107 1.85085 32.8107 2.60305L32.8119 4.45297V4.45359L32.8168 12.141Z" fill="white"/>
<path d="M24.8031 0.226074C25.912 0.226074 26.8109 1.13126 26.8109 2.24813C26.8109 3.36501 25.912 4.27019 24.8031 4.27019C23.6942 4.27019 22.7949 3.36501 22.7949 2.24813C22.7949 1.13126 23.6939 0.226074 24.8031 0.226074Z" fill="white"/>
<path d="M17.5341 13.0259C17.3908 12.4845 17.4982 11.8704 17.8567 11.1847L20.5281 6.00948C20.851 5.39572 21.2751 4.9986 21.8012 4.824C22.3272 4.64352 22.865 4.69173 23.3787 4.9745C23.8928 5.2514 24.2274 5.66644 24.3707 6.20201C24.5082 6.73171 24.3946 7.33928 24.042 8.00743L21.4184 13.0862C21.0719 13.7482 20.6355 14.1873 20.1217 14.3799C19.5898 14.5844 19.0579 14.5483 18.538 14.2655C18.0181 13.9886 17.6774 13.5674 17.5341 13.0259Z" fill="white"/>
<path d="M14.2959 3.5241L12.6303 6.71402V6.71464L10.352 11.0768L9.29961 13.092C9.24805 13.1906 9.19434 13.2839 9.13879 13.3723C8.91351 13.7327 8.65539 14.0102 8.3672 14.1996C8.36597 14.2002 8.36474 14.2015 8.3629 14.2021C8.33313 14.2194 8.30244 14.237 8.27144 14.2531C7.80339 14.5022 7.32552 14.5658 6.85164 14.4487C6.85041 14.4487 6.84918 14.4481 6.84795 14.4481C6.70401 14.407 6.56099 14.3483 6.41888 14.271C5.89313 13.9941 5.55829 13.567 5.41495 13.0253C5.27162 12.4838 5.37905 11.8698 5.73753 11.184L7.32675 8.14086L8.0744 6.71L10.3514 2.35036L10.7817 1.52584C11.1043 0.91208 11.5288 0.514962 12.0548 0.340353C12.5806 0.159873 13.1186 0.208084 13.6324 0.490856C14.1465 0.767757 14.4871 1.1828 14.6243 1.71837C14.7618 2.24776 14.6483 2.85564 14.2956 3.52348" fill="white"/>
</svg>
