<svg width="21" height="21" viewBox="0 0 21 21" fill="none" xmlns="http://www.w3.org/2000/svg">
<g clip-path="url(#clip0_800_4552)">
<path d="M13.833 11.7781C13.4449 12.2956 12.9416 12.7156 12.3631 13.0049C11.7845 13.2941 11.1465 13.4447 10.4997 13.4447C9.85282 13.4447 9.21485 13.2941 8.63628 13.0049C8.05772 12.7156 7.55445 12.2956 7.16634 11.7781C6.8397 12.2184 6.42866 12.5892 5.9572 12.869C5.48574 13.1488 4.96329 13.332 4.42031 13.4078C3.87734 13.4835 3.32471 13.4505 2.79466 13.3104C2.2646 13.1704 1.76773 12.9263 1.33301 12.5922V16.7781C1.33433 17.8827 1.77374 18.9418 2.55486 19.7229C3.33597 20.504 4.39501 20.9434 5.49967 20.9447H15.4997C16.6043 20.9434 17.6634 20.504 18.4445 19.7229C19.2256 18.9418 19.665 17.8827 19.6663 16.7781V12.5897C19.2318 12.9239 18.735 13.1682 18.2051 13.3084C17.6751 13.4486 17.1225 13.482 16.5796 13.4064C16.0366 13.3309 15.5141 13.148 15.0426 12.8684C14.571 12.5888 14.1598 12.2182 13.833 11.7781Z" fill="black"/>
<path d="M18.583 3.55393C18.4217 2.8115 18.0101 2.14709 17.4172 1.67206C16.8243 1.19703 16.0861 0.940246 15.3263 0.944761H14.6663V3.44476C14.6663 3.66577 14.5785 3.87774 14.4223 4.03402C14.266 4.1903 14.054 4.27809 13.833 4.27809C13.612 4.27809 13.4 4.1903 13.2438 4.03402C13.0875 3.87774 12.9997 3.66577 12.9997 3.44476V0.944761H7.99967V3.44476C7.99967 3.66577 7.91188 3.87774 7.7556 4.03402C7.59932 4.1903 7.38735 4.27809 7.16634 4.27809C6.94533 4.27809 6.73337 4.1903 6.57709 4.03402C6.4208 3.87774 6.33301 3.66577 6.33301 3.44476V0.944761H5.67301C4.91316 0.940287 4.17488 1.19719 3.58194 1.67238C2.98901 2.14758 2.57748 2.81218 2.41634 3.55476L1.35134 8.36143L1.33301 9.29476C1.3341 9.62307 1.39985 9.94794 1.5265 10.2508C1.65315 10.5537 1.83821 10.8287 2.07113 11.0601C2.54154 11.5274 3.1783 11.7886 3.84134 11.7864C4.16965 11.7853 4.49452 11.7196 4.79742 11.5929C5.10031 11.4663 5.37529 11.2812 5.60667 11.0483C5.83804 10.8154 6.02127 10.5392 6.1459 10.2354C6.27052 9.9317 6.3341 9.6064 6.33301 9.27809C6.33301 9.05708 6.4208 8.84512 6.57709 8.68884C6.73337 8.53256 6.94533 8.44476 7.16634 8.44476C7.38735 8.44476 7.59932 8.53256 7.7556 8.68884C7.91188 8.84512 7.99967 9.05708 7.99967 9.27809C7.99967 9.94114 8.26307 10.577 8.73191 11.0459C9.20075 11.5147 9.83663 11.7781 10.4997 11.7781C11.1627 11.7781 11.7986 11.5147 12.2674 11.0459C12.7363 10.577 12.9997 9.94114 12.9997 9.27809C12.9997 9.05708 13.0875 8.84512 13.2438 8.68884C13.4 8.53256 13.612 8.44476 13.833 8.44476C14.054 8.44476 14.266 8.53256 14.4223 8.68884C14.5785 8.84512 14.6663 9.05708 14.6663 9.27809C14.6663 9.94114 14.9297 10.577 15.3986 11.0459C15.8674 11.5147 16.5033 11.7781 17.1663 11.7781C17.8294 11.7781 18.4653 11.5147 18.9341 11.0459C19.4029 10.577 19.6663 9.94114 19.6663 9.27809V8.53393L18.583 3.55393Z" fill="black"/>
</g>
<defs>
<clipPath id="clip0_800_4552">
<rect width="20" height="20" fill="white" transform="translate(0.5 0.944702)"/>
</clipPath>
</defs>
</svg>
