<svg width="173" height="95" viewBox="0 0 173 95" fill="none" xmlns="http://www.w3.org/2000/svg">
<path d="M92.0673 14.7677L69.5786 57.6137C69.2692 58.2005 68.9431 58.7513 68.6019 59.2606V59.2634C67.7785 60.4868 66.8667 61.4804 65.872 62.2305C65.8665 62.2333 65.8609 62.2388 65.8554 62.2416C65.5542 62.4464 65.2337 62.6374 64.898 62.8159C62.9238 63.8607 60.9081 64.179 58.9077 63.7805C58.8994 63.7805 58.8883 63.7777 58.8814 63.7749C58.1202 63.595 57.3645 63.303 56.6129 62.8962C54.2726 61.6562 52.7667 59.7436 52.0939 57.3176C51.4488 54.893 51.9323 52.1431 53.5459 49.0722L60.6719 35.496L76.2501 5.82209C77.7021 3.07363 79.6127 1.2953 81.9807 0.513389C84.3486 -0.294818 86.7691 -0.0789276 89.0817 1.18736C91.3958 2.42734 92.9293 4.28594 93.5469 6.68427C94.1658 9.0563 93.6546 11.7771 92.0673 14.7691" fill="#E52722"/>
<path d="M170.833 14.7679L148.343 57.6139C146.957 60.2461 145.253 62.095 143.265 63.079C144.16 62.6071 144.967 61.9636 145.68 61.1443C147.293 59.312 148.154 56.6715 148.154 53.357L148.132 18.9321V18.9293L155.013 5.82226C156.467 3.07381 158.376 1.29548 160.744 0.513566C163.112 -0.268346 165.532 -0.0787505 167.846 1.18753C170.16 2.42752 171.692 4.28612 172.311 6.68444C172.93 9.05648 172.419 11.7773 170.832 14.7693" fill="#AD0400"/>
<path d="M139.744 0.0942423C139.571 0.0859388 139.4 0.0804023 139.224 0.0804023C136.615 0.0804023 134.382 1.02423 132.687 2.80256C130.992 4.5809 130.105 7.0332 130.105 10.1318L130.127 45.2708L123.649 57.6126C122.089 60.5769 120.125 62.5434 117.812 63.4056C115.418 64.3218 113.024 64.1599 110.683 62.8936C108.343 61.6536 106.836 59.741 106.164 57.315C105.519 54.8904 106.003 52.1405 107.618 49.0696L130.322 5.8195C131.775 3.07104 133.684 1.29271 136.051 0.5108C137.275 0.106697 138.516 -0.038615 139.745 0.092857" fill="#AD0400"/>
<path d="M25.1653 58.3807L2.16274 14.9299C0.549113 11.8853 0.0641971 9.13686 0.710755 6.68456C1.35593 4.23226 2.86318 2.31831 5.2035 1.106C7.54382 -0.133991 9.96565 -0.294524 12.3322 0.593949C14.6463 1.48381 16.6094 3.45035 18.1692 6.38841L33.42 35.4451L26.2678 49.0725C24.6541 52.1448 24.1692 54.8933 24.8158 57.3179" fill="#AD0400"/>
<path d="M47.0351 9.51314L36.7855 29.036L29.3874 14.9298C27.7737 11.8852 27.2888 9.13671 27.9354 6.68441C28.5805 4.23212 30.0878 2.31816 32.4281 1.10585C34.7684 -0.134137 37.1903 -0.296055 39.5568 0.593803C41.8709 1.48366 43.8341 3.45021 45.3938 6.38826L47.0351 9.51452V9.51314Z" fill="#AD0400"/>
<path d="M52.7004 58.93L47.0361 48.5894L57.2913 29.0554L60.6705 35.4962L53.5445 49.0724C51.9309 52.1447 51.446 54.8931 52.0925 57.3178" fill="#AD0400"/>
<path d="M148.155 53.3558C148.155 56.6703 147.294 59.3108 145.68 61.1431C144.967 61.9623 144.161 62.6059 143.264 63.0778C143.256 63.0806 143.25 63.0861 143.242 63.0889C143.21 63.1055 143.177 63.1207 143.145 63.1345C141.975 63.7241 140.657 64.0161 139.197 63.9995C136.561 63.9455 134.354 63.0556 132.659 61.197C130.992 59.3647 130.131 56.6966 130.131 53.3018L130.126 45.2709L130.104 10.1319C130.104 7.03336 130.992 4.58106 132.686 2.80273C134.381 1.0244 136.613 0.0805664 139.223 0.0805664C139.398 0.0805664 139.57 0.0861029 139.742 0.0944064C142.126 0.210655 144.148 1.14756 145.679 2.8567C147.32 4.689 148.127 7.27555 148.127 10.644L148.133 18.9281V18.9309L148.155 53.3558Z" fill="#E52722"/>
<path d="M112.08 0C117.072 0 121.118 4.05349 121.118 9.05496C121.118 14.0564 117.072 18.1099 112.08 18.1099C107.089 18.1099 103.041 14.0564 103.041 9.05496C103.041 4.05349 107.088 0 112.08 0Z" fill="#E52722"/>
<path d="M79.3684 57.3176C78.7232 54.893 79.2067 52.1431 80.8203 49.0722L92.8452 25.8972C94.2986 23.1487 96.2079 21.3704 98.5758 20.5885C100.944 19.7803 103.364 19.9961 105.677 21.2624C107.991 22.5024 109.497 24.361 110.142 26.7593C110.761 29.1314 110.25 31.8522 108.662 34.8442L96.853 57.5874C95.2933 60.5518 93.3288 62.5183 91.0161 63.3805C88.6219 64.2967 86.2277 64.1348 83.8874 62.8685C81.547 61.6285 80.0135 59.7422 79.3684 57.3176Z" fill="#E52722"/>
<path d="M64.7888 14.7678L57.2912 29.0526V29.0553L47.036 48.5893L42.2988 57.6138C42.0667 58.0553 41.8249 58.4732 41.5748 58.869C40.5608 60.4827 39.3989 61.7254 38.1017 62.5738C38.0961 62.5766 38.0906 62.5821 38.0823 62.5849C37.9483 62.6624 37.8102 62.7412 37.6706 62.8132C35.5638 63.9286 33.4127 64.2137 31.2797 63.6892C31.2741 63.6892 31.2686 63.6865 31.2631 63.6865C30.6151 63.5024 29.9713 63.2394 29.3317 62.8935C26.9651 61.6535 25.4579 59.7409 24.8127 57.3149C24.1675 54.8903 24.6511 52.1404 26.2647 49.0695L33.4183 35.4421L36.7837 29.0346L47.0333 9.51169L48.9702 5.8194C50.4222 3.07095 52.3328 1.29262 54.7008 0.510703C57.0674 -0.297503 59.4892 -0.0816131 61.8019 1.18467C64.116 2.42466 65.6495 4.28326 66.267 6.68159C66.8859 9.05223 66.3748 11.7744 64.7874 14.765" fill="#E52722"/>
<path d="M15.9881 92.5935V82.875L11.8081 94.0042C11.5991 94.579 11.1898 94.8663 10.5803 94.8663C9.9881 94.8663 9.58752 94.579 9.37852 94.0042L5.19855 82.875V92.5935C5.19855 93.2205 4.98084 93.7604 4.54543 94.2132C4.11001 94.6486 3.57881 94.8663 2.95181 94.8663C2.32482 94.8663 1.79361 94.6486 1.3582 94.2132C0.922785 93.7604 0.705078 93.2205 0.705078 92.5935V80.6022C0.705078 79.6094 1.06212 78.756 1.7762 78.0419C2.49027 77.3279 3.34368 76.9708 4.33643 76.9708C5.10276 76.9708 5.79942 77.1972 6.42641 77.6501C7.05341 78.0855 7.48882 78.6602 7.73266 79.3743L10.5803 87.0811L13.454 79.3743C13.7152 78.6602 14.1594 78.0855 14.7864 77.6501C15.4134 77.1972 16.11 76.9708 16.8763 76.9708C17.8517 76.9708 18.6964 77.3366 19.4104 78.0681C20.1245 78.7821 20.4816 79.6269 20.4816 80.6022V92.5935C20.4816 93.2205 20.2639 93.7604 19.8284 94.2132C19.393 94.6486 18.8618 94.8663 18.2348 94.8663C17.6078 94.8663 17.0766 94.6486 16.6412 94.2132C16.2058 93.7604 15.9881 93.2205 15.9881 92.5935Z" fill="#E81F27"/>
<path d="M23.8766 92.2538V79.5833C23.8766 77.9984 24.669 77.206 26.2539 77.206H34.9796C35.4847 77.206 35.9201 77.3975 36.2859 77.7807C36.669 78.1464 36.8606 78.5906 36.8606 79.1131C36.8606 79.6181 36.669 80.0623 36.2859 80.4454C35.9201 80.8112 35.4847 80.9941 34.9796 80.9941H28.37V83.8939H34.7967C35.3018 83.8939 35.7372 84.0855 36.103 84.4686C36.4861 84.8344 36.6777 85.2785 36.6777 85.801C36.6777 86.3235 36.4861 86.7763 36.103 87.1595C35.7372 87.5253 35.3018 87.7081 34.7967 87.7081H28.37V90.8431H34.9796C35.4847 90.8431 35.9201 91.026 36.2859 91.3917C36.669 91.7575 36.8606 92.2016 36.8606 92.7241C36.8606 93.2466 36.669 93.6994 36.2859 94.0826C35.9201 94.4483 35.4847 94.6312 34.9796 94.6312H26.2539C24.669 94.6312 23.8766 93.8388 23.8766 92.2538Z" fill="#E81F27"/>
<path d="M54.8049 92.5935V82.875L50.6249 94.0042C50.4159 94.579 50.0066 94.8663 49.397 94.8663C48.8049 94.8663 48.4043 94.579 48.1953 94.0042L44.0153 82.875V92.5935C44.0153 93.2205 43.7976 93.7604 43.3622 94.2132C42.9268 94.6486 42.3956 94.8663 41.7686 94.8663C41.1416 94.8663 40.6104 94.6486 40.175 94.2132C39.7396 93.7604 39.5219 93.2205 39.5219 92.5935V80.6022C39.5219 79.6094 39.8789 78.756 40.593 78.0419C41.3071 77.3279 42.1605 76.9708 43.1532 76.9708C43.9195 76.9708 44.6162 77.1972 45.2432 77.6501C45.8702 78.0855 46.3056 78.6602 46.5494 79.3743L49.397 87.0811L52.2708 79.3743C52.532 78.6602 52.9761 78.0855 53.6031 77.6501C54.2301 77.1972 54.9268 76.9708 55.6931 76.9708C56.6685 76.9708 57.5132 77.3366 58.2272 78.0681C58.9413 78.7821 59.2984 79.6269 59.2984 80.6022V92.5935C59.2984 93.2205 59.0806 93.7604 58.6452 94.2132C58.2098 94.6486 57.6786 94.8663 57.0516 94.8663C56.4246 94.8663 55.8934 94.6486 55.458 94.2132C55.0226 93.7604 54.8049 93.2205 54.8049 92.5935Z" fill="#E81F27"/>
<path d="M62.6934 92.2538V79.5833C62.6934 77.9984 63.4858 77.206 65.0707 77.206H72.5685C74.1534 77.206 75.3987 77.6414 76.3044 78.5122C77.21 79.383 77.6629 80.428 77.6629 81.6472C77.6629 82.6747 77.3842 83.5456 76.8269 84.2597C76.2696 84.9737 75.5555 85.4353 74.6846 85.6443C75.6077 85.7662 76.3915 86.2451 77.0359 87.0811C77.6803 87.8823 78.0025 88.8228 78.0025 89.9026C78.0025 91.2611 77.5497 92.3932 76.644 93.2988C75.7558 94.1871 74.5018 94.6312 72.882 94.6312H65.0707C63.4858 94.6312 62.6934 93.8388 62.6934 92.2538ZM67.1868 83.9462H71.5497C72.0025 83.9462 72.3682 83.8068 72.6469 83.5282C72.943 83.2321 73.091 82.8663 73.091 82.4309C73.091 81.9955 72.943 81.6385 72.6469 81.3598C72.3682 81.0811 72.0025 80.9418 71.5497 80.9418H67.1868V83.9462ZM67.1868 90.8954H71.7064C72.2289 90.8954 72.6469 90.7473 72.9604 90.4512C73.2739 90.1552 73.4307 89.772 73.4307 89.3017C73.4307 88.8315 73.2739 88.4396 72.9604 88.1261C72.6469 87.8126 72.2289 87.6559 71.7064 87.6559H67.1868V90.8954Z" fill="#E81F27"/>
<path d="M80.7113 92.2538V79.5833C80.7113 77.9984 81.5038 77.206 83.0887 77.206H91.8144C92.3195 77.206 92.7549 77.3975 93.1206 77.7807C93.5038 78.1464 93.6954 78.5906 93.6954 79.1131C93.6954 79.6181 93.5038 80.0623 93.1206 80.4454C92.7549 80.8112 92.3195 80.9941 91.8144 80.9941H85.2048V83.8939H91.6315C92.1366 83.8939 92.572 84.0855 92.9377 84.4686C93.3209 84.8344 93.5125 85.2785 93.5125 85.801C93.5125 86.3235 93.3209 86.7763 92.9377 87.1595C92.572 87.5253 92.1366 87.7081 91.6315 87.7081H85.2048V90.8431H91.8144C92.3195 90.8431 92.7549 91.026 93.1206 91.3917C93.5038 91.7575 93.6954 92.2016 93.6954 92.7241C93.6954 93.2466 93.5038 93.6994 93.1206 94.0826C92.7549 94.4483 92.3195 94.6312 91.8144 94.6312H83.0887C81.5038 94.6312 80.7113 93.8388 80.7113 92.2538Z" fill="#E81F27"/>
<path d="M108.165 88.0478L110.595 91.235C110.908 91.6878 111.065 92.1581 111.065 92.6457C111.065 93.2553 110.838 93.7778 110.386 94.2132C109.95 94.6486 109.436 94.8663 108.844 94.8663C108.078 94.8663 107.468 94.5528 107.016 93.9258L103.384 88.727H100.85V92.5935C100.85 93.2205 100.632 93.7604 100.197 94.2132C99.7616 94.6486 99.2303 94.8663 98.6033 94.8663C97.9763 94.8663 97.4451 94.6486 97.0097 94.2132C96.5743 93.7604 96.3566 93.2205 96.3566 92.5935V79.5833C96.3566 77.9984 97.1491 77.206 98.734 77.206H105.082C106.928 77.206 108.4 77.7546 109.497 78.8518C110.595 79.9316 111.143 81.3163 111.143 83.0057C111.143 84.2074 110.865 85.2437 110.307 86.1145C109.767 86.9679 109.053 87.6123 108.165 88.0478ZM100.85 80.9941V84.9128H104.403C105.03 84.9128 105.544 84.7299 105.944 84.3642C106.362 83.9984 106.571 83.5282 106.571 82.9534C106.571 82.3787 106.362 81.9084 105.944 81.5427C105.544 81.1769 105.03 80.9941 104.403 80.9941H100.85Z" fill="#E81F27"/>
<path d="M113.211 91.6007C113.211 91.0434 113.411 90.5644 113.811 90.1639C114.212 89.7459 114.691 89.5369 115.248 89.5369C115.666 89.5369 116.032 89.6414 116.346 89.8504C117.669 90.6864 119.08 91.1044 120.578 91.1044C121.309 91.1044 121.901 90.965 122.354 90.6864C122.825 90.4077 123.06 90.0507 123.06 89.6152C123.06 89.1624 122.833 88.8141 122.38 88.5702C121.945 88.309 121.179 88.0652 120.081 87.8388C118.653 87.5427 117.495 87.2553 116.607 86.9766C115.719 86.6806 114.917 86.1581 114.203 85.4091C113.524 84.6776 113.184 83.6762 113.184 82.4048C113.184 80.8547 113.829 79.5572 115.118 78.5122C116.407 77.4672 118.166 76.9447 120.395 76.9447C122.38 76.9447 124.183 77.3627 125.803 78.1987C126.134 78.3554 126.404 78.5993 126.613 78.9302C126.822 79.2611 126.926 79.6181 126.926 80.0013C126.926 80.5586 126.726 81.0376 126.325 81.4382C125.925 81.8388 125.446 82.039 124.888 82.039C124.592 82.039 124.27 81.9607 123.922 81.8039C122.494 81.1247 121.222 80.7851 120.108 80.7851C118.557 80.7851 117.782 81.2379 117.782 82.1435C117.782 82.5441 118 82.8576 118.436 83.084C118.871 83.3105 119.655 83.5282 120.787 83.7372C122.232 84.0507 123.364 84.3554 124.183 84.6515C125.106 84.9999 125.907 85.5224 126.586 86.219C127.283 86.9157 127.631 87.8823 127.631 89.1189C127.631 90.9128 126.987 92.3322 125.698 93.3772C124.427 94.4222 122.65 94.9447 120.369 94.9447C117.965 94.9447 115.91 94.4135 114.203 93.3511C113.542 92.9331 113.211 92.3496 113.211 91.6007Z" fill="#E81F27"/>
<path d="M141.724 92.5935V87.6298H134.488V92.5935C134.488 93.2205 134.27 93.7604 133.835 94.2132C133.399 94.6486 132.868 94.8663 132.241 94.8663C131.614 94.8663 131.083 94.6486 130.647 94.2132C130.212 93.7604 129.994 93.2205 129.994 92.5935V79.2437C129.994 78.6167 130.212 78.0855 130.647 77.6501C131.083 77.1972 131.614 76.9708 132.241 76.9708C132.868 76.9708 133.399 77.1972 133.835 77.6501C134.27 78.0855 134.488 78.6167 134.488 79.2437V83.711H141.724V79.2437C141.724 78.6167 141.942 78.0855 142.378 77.6501C142.813 77.1972 143.344 76.9708 143.971 76.9708C144.598 76.9708 145.129 77.1972 145.565 77.6501C146 78.0855 146.218 78.6167 146.218 79.2437V92.5935C146.218 93.2205 146 93.7604 145.565 94.2132C145.129 94.6486 144.598 94.8663 143.971 94.8663C143.344 94.8663 142.813 94.6486 142.378 94.2132C141.942 93.7604 141.724 93.2205 141.724 92.5935Z" fill="#E81F27"/>
<path d="M149.62 92.5935V79.2437C149.62 78.6167 149.837 78.0855 150.273 77.6501C150.708 77.1972 151.239 76.9708 151.866 76.9708C152.493 76.9708 153.025 77.1972 153.46 77.6501C153.895 78.0855 154.113 78.6167 154.113 79.2437V92.5935C154.113 93.2205 153.895 93.7604 153.46 94.2132C153.025 94.6486 152.493 94.8663 151.866 94.8663C151.239 94.8663 150.708 94.6486 150.273 94.2132C149.837 93.7604 149.62 93.2205 149.62 92.5935Z" fill="#E81F27"/>
<path d="M157.509 92.5935V79.5833C157.509 77.9984 158.302 77.206 159.886 77.206H166.235C168.098 77.206 169.57 77.7546 170.65 78.8518C171.747 79.9491 172.296 81.3337 172.296 83.0057C172.296 84.6602 171.747 86.0274 170.65 87.1073C169.57 88.1871 168.098 88.727 166.235 88.727H162.003V92.5935C162.003 93.2205 161.785 93.7604 161.349 94.2132C160.914 94.6486 160.383 94.8663 159.756 94.8663C159.129 94.8663 158.598 94.6486 158.162 94.2132C157.727 93.7604 157.509 93.2205 157.509 92.5935ZM165.634 80.9941H162.003V84.9128H165.634C166.243 84.9128 166.74 84.7386 167.123 84.3903C167.524 84.0245 167.724 83.5543 167.724 82.9795C167.724 82.3874 167.524 81.9084 167.123 81.5427C166.74 81.1769 166.243 80.9941 165.634 80.9941Z" fill="#E81F27"/>
</svg>
