<svg width="32" height="32" viewBox="0 0 32 32" fill="none" xmlns="http://www.w3.org/2000/svg">
<path d="M27.5428 19.8107C26.7726 19.0776 25.7496 18.6695 24.6863 18.6712C23.623 18.673 22.6012 19.0844 21.8335 19.82L19.2921 21.9614C17.2177 21.1025 15.3333 19.8424 13.7471 18.2533C12.161 16.6642 10.9044 14.7774 10.0495 12.7014L12.1828 10.168C12.9178 9.40016 13.3288 8.37861 13.3303 7.31563C13.3318 6.25265 12.9237 5.22996 12.1908 4.46003C12.1908 4.46003 9.7228 1.25603 9.68147 1.2147C8.92085 0.448309 7.88908 0.0121989 6.80938 0.000720697C5.72968 -0.0107575 4.68887 0.403319 3.91213 1.15336L2.3788 2.4867C-7.91453 13.4307 18.6455 40.004 29.5788 29.5534L30.7948 28.1534C31.5667 27.3787 32.0001 26.3296 32.0001 25.236C32.0001 24.1424 31.5667 23.0934 30.7948 22.3187C30.7521 22.28 27.5428 19.8107 27.5428 19.8107Z" fill="white"/>
</svg>
