<svg width="179" height="66" viewBox="0 0 179 66" fill="none" xmlns="http://www.w3.org/2000/svg">
<path d="M95.2512 15.2278L72.0198 59.4129C71.7001 60.018 71.3633 60.5861 71.0108 61.1113V61.1141C70.1602 62.3757 69.2183 63.4004 68.1907 64.174C68.185 64.1768 68.1793 64.1825 68.1736 64.1854C67.8624 64.3966 67.5313 64.5936 67.1845 64.7777C65.1451 65.8552 63.0629 66.1834 60.9964 65.7724C60.9878 65.7724 60.9764 65.7695 60.9692 65.7667C60.1829 65.5811 59.4022 65.28 58.6258 64.8604C56.2082 63.5817 54.6526 61.6093 53.9576 59.1075C53.2911 56.6071 53.7906 53.7713 55.4575 50.6045L62.8188 36.604L78.9116 6.00265C80.4115 3.1683 82.3853 1.33439 84.8315 0.528045C87.2776 -0.30542 89.778 -0.0827829 92.1671 1.22307C94.5576 2.50182 96.1418 4.4185 96.7797 6.89178C97.4191 9.33794 96.891 12.1437 95.2512 15.2293" fill="white"/>
<path d="M176.618 15.2278L153.385 59.4129C151.953 62.1273 150.192 64.034 148.139 65.0488C149.063 64.5621 149.897 63.8984 150.633 63.0536C152.3 61.164 153.189 58.441 153.189 55.0229L153.167 19.5222V19.5193L160.275 6.0026C161.777 3.16824 163.749 1.33434 166.195 0.527987C168.641 -0.278362 171.142 -0.0828406 173.532 1.22302C175.923 2.50176 177.505 4.41844 178.145 6.89172C178.784 9.33788 178.256 12.1437 176.616 15.2292" fill="#FBCECD"/>
<path d="M144.503 0.0970994C144.324 0.0885364 144.147 0.0828225 143.966 0.0828225C141.27 0.0828225 138.964 1.05616 137.213 2.89007C135.462 4.72397 134.545 7.25291 134.545 10.4483L134.568 46.6855L127.876 59.413C126.265 62.47 124.235 64.498 121.846 65.3871C119.373 66.3319 116.9 66.1649 114.482 64.8591C112.065 63.5803 110.508 61.608 109.814 59.1062C109.147 56.6058 109.647 53.77 111.315 50.6031L134.769 6.00129C136.271 3.16693 138.243 1.33303 140.688 0.526678C141.952 0.109945 143.234 -0.0399099 144.504 0.0956709" fill="#FBCECD"/>
<path d="M26.1404 60.2051L2.37806 15.3964C0.711133 12.2566 0.210199 9.42227 0.878112 6.89333C1.5446 4.36439 3.10164 2.39062 5.51926 1.14042C7.93688 -0.138318 10.4387 -0.303871 12.8834 0.61237C15.2739 1.53004 17.3019 3.55804 18.9132 6.58792L34.6677 36.5527L27.2793 50.606C25.6123 53.7743 25.1114 56.6087 25.7793 59.1091" fill="#FBCECD"/>
<path d="M48.7308 9.80887L38.1426 29.9419L30.5001 15.3948C28.8332 12.255 28.3323 9.42068 29.0002 6.89174C29.6667 4.3628 31.2237 2.38903 33.6413 1.13883C36.0589 -0.139911 38.5608 -0.306891 41.0055 0.610777C43.396 1.52844 45.424 3.55645 47.0353 6.58632L48.7308 9.8103V9.80887Z" fill="#FBCECD"/>
<path d="M54.5848 60.7702L48.7334 50.1064L59.3273 29.9619L62.8181 36.604L55.4568 50.6045C53.7898 53.7728 53.2889 56.6071 53.9568 59.1075" fill="#FBCECD"/>
<path d="M153.192 55.023C153.192 58.441 152.303 61.1641 150.636 63.0536C149.9 63.8985 149.066 64.5622 148.14 65.0488C148.132 65.0517 148.126 65.0574 148.117 65.0602C148.084 65.0774 148.05 65.093 148.017 65.1073C146.809 65.7153 145.447 66.0164 143.939 65.9993C141.215 65.9436 138.936 65.026 137.185 63.1093C135.463 61.2197 134.573 58.4682 134.573 54.9673L134.568 46.6855L134.545 10.4483C134.545 7.25285 135.463 4.72392 137.212 2.89001C138.963 1.0561 141.27 0.0827637 143.966 0.0827637C144.147 0.0827637 144.324 0.0884776 144.502 0.0970406C146.964 0.216923 149.053 1.18312 150.635 2.94567C152.33 4.83524 153.164 7.5026 153.164 10.9763L153.169 19.5194V19.5222L153.192 55.023Z" fill="white"/>
<path d="M115.925 0C121.081 0 125.261 4.18017 125.261 9.33795C125.261 14.4957 121.081 18.6759 115.925 18.6759C110.769 18.6759 106.587 14.4957 106.587 9.33795C106.587 4.18017 110.767 0 115.925 0Z" fill="white"/>
<path d="M82.1324 59.1074C81.4659 56.607 81.9654 53.7713 83.6323 50.6044L96.0544 26.705C97.5558 23.8707 99.5281 22.0368 101.974 21.2304C104.42 20.397 106.921 20.6196 109.31 21.9255C111.7 23.2042 113.256 25.1209 113.923 27.5942C114.562 30.0403 114.034 32.8461 112.394 35.9317L100.195 59.3857C98.5833 62.4427 96.5539 64.4707 94.1648 65.3598C91.6915 66.3046 89.2183 66.1377 86.8006 64.8318C84.383 63.5531 82.7989 61.6078 82.1324 59.1074Z" fill="white"/>
<path d="M67.0734 15.2278L59.3282 29.959V29.9618L48.7343 50.1063L43.8405 59.4128C43.6008 59.8681 43.351 60.2991 43.0927 60.7073C42.0452 62.3714 40.8449 63.653 39.5048 64.5278C39.4991 64.5307 39.4934 64.5364 39.4848 64.5392C39.3464 64.6192 39.2037 64.7005 39.0595 64.7747C36.8831 65.925 34.661 66.219 32.4575 65.6781C32.4518 65.6781 32.446 65.6753 32.4403 65.6753C31.771 65.4854 31.1059 65.2143 30.4452 64.8575C28.0004 63.5788 26.4434 61.6064 25.7769 59.1046C25.1104 56.6042 25.6099 53.7684 27.2769 50.6015L34.6667 36.5482L38.1433 29.9405L48.7315 9.8074L50.7323 5.99972C52.2323 3.16537 54.2061 1.33146 56.6522 0.525115C59.097 -0.30835 61.5988 -0.0857126 63.9879 1.22014C66.3784 2.49889 67.9625 4.41557 68.6005 6.88885C69.2398 9.33358 68.7118 12.1408 67.072 15.2249" fill="white"/>
</svg>
