<svg width="108" height="40" viewBox="0 0 108 40" fill="none" xmlns="http://www.w3.org/2000/svg">
<path d="M57.2712 9.22982L43.2159 36.0084C43.0225 36.3751 42.8188 36.7194 42.6055 37.0377V37.0394C42.0909 37.804 41.521 38.425 40.8993 38.8938C40.8958 38.8956 40.8924 38.899 40.8889 38.9008C40.7007 39.0288 40.5004 39.1481 40.2906 39.2597C39.0567 39.9127 37.7969 40.1117 36.5466 39.8626C36.5414 39.8626 36.5345 39.8608 36.5302 39.8591C36.0545 39.7467 35.5822 39.5642 35.1124 39.3099C33.6497 38.5349 32.7086 37.3395 32.2881 35.8233C31.8848 34.3079 32.1871 32.5893 33.1956 30.67L37.6493 22.1849L47.3856 3.63884C48.293 1.92107 49.4872 0.809619 50.9672 0.320927C52.4471 -0.184199 53.9599 -0.0492682 55.4053 0.742153C56.8516 1.51714 57.81 2.67876 58.196 4.1777C58.5828 5.66021 58.2633 7.36068 57.2712 9.23069" fill="#E52722"/>
<path d="M106.498 9.23001L92.4421 36.0086C91.5761 37.6537 90.5106 38.8093 89.2681 39.4242C89.8276 39.1293 90.3318 38.7271 90.7774 38.215C91.7859 37.0699 92.3238 35.4196 92.3238 33.348L92.31 11.8326V11.8309L96.6109 3.63903C97.5192 1.92125 98.7125 0.809806 100.192 0.321114C101.672 -0.167578 103.185 -0.0490812 104.631 0.74234C106.078 1.51733 107.035 2.67894 107.422 4.17789C107.809 5.6604 107.49 7.36087 106.497 9.23087" fill="#AD0400"/>
<path d="M87.0681 0.0586113C86.9602 0.0534216 86.8531 0.0499614 86.7435 0.0499614C85.1124 0.0499614 83.7171 0.639851 82.6576 1.7513C81.5981 2.86275 81.0438 4.39543 81.0438 6.33203L81.0576 28.2937L77.0089 36.0073C76.0341 37.86 74.8062 39.0891 73.3608 39.6279C71.8644 40.2005 70.3681 40.0993 68.9054 39.3079C67.4427 38.5329 66.5007 37.3376 66.081 35.8213C65.6778 34.306 65.98 32.5873 66.9894 30.668L81.1794 3.63687C82.0877 1.9191 83.281 0.80765 84.7601 0.318958C85.5251 0.0663953 86.3005 -0.0244239 87.069 0.0577455" fill="#AD0400"/>
<path d="M15.4572 36.4876L1.08071 9.331C0.0721988 7.42813 -0.230871 5.71036 0.173225 4.17768C0.576457 2.64501 1.51848 1.4488 2.98117 0.691107C4.44386 -0.0838807 5.95749 -0.184214 7.43659 0.371079C8.88287 0.927236 10.1098 2.15632 11.0847 3.99259L20.6163 22.1529L16.1462 30.67C15.1377 32.5901 14.8346 34.3079 15.2387 35.8233" fill="#AD0400"/>
<path d="M29.1261 5.94574L22.7201 18.1475L18.0963 9.33112C17.0878 7.42825 16.7848 5.71048 17.1888 4.17781C17.5921 2.64513 18.5341 1.44892 19.9968 0.691229C21.4595 -0.0837586 22.9731 -0.184956 24.4522 0.371201C25.8985 0.927358 27.1255 2.15644 28.1003 3.99271L29.1261 5.94661V5.94574Z" fill="#AD0400"/>
<path d="M32.6671 36.8307L29.127 30.3678L35.5364 18.1592L37.6484 22.1846L33.1947 30.6697C32.1862 32.5899 31.8831 34.3076 32.2872 35.823" fill="#AD0400"/>
<path d="M92.3263 33.3475C92.3263 35.4191 91.7884 37.0694 90.7799 38.2146C90.3343 38.7266 89.8301 39.1288 89.2697 39.4238C89.2645 39.4255 89.261 39.4289 89.2559 39.4307C89.236 39.4411 89.2153 39.4506 89.1954 39.4592C88.4641 39.8277 87.6403 40.0102 86.7277 39.9998C85.0802 39.9661 83.7013 39.4099 82.6418 38.2483C81.5996 37.1031 81.0617 35.4355 81.0617 33.3138L81.0582 28.2946L81.0444 6.33285C81.0444 4.39624 81.5996 2.86357 82.6582 1.75212C83.7177 0.640671 85.113 0.0507812 86.7441 0.0507812C86.8537 0.0507812 86.9608 0.0542415 87.0687 0.0594312C88.5582 0.132086 89.8223 0.71765 90.779 1.78585C91.8048 2.93103 92.309 4.54761 92.309 6.65288L92.3125 11.8304V11.8321L92.3263 33.3475Z" fill="#E52722"/>
<path d="M69.779 0C72.8986 0 75.4277 2.53341 75.4277 5.65931C75.4277 8.78521 72.8986 11.3186 69.779 11.3186C66.6593 11.3186 64.1294 8.78521 64.1294 5.65931C64.1294 2.53341 66.6584 0 69.779 0Z" fill="#E52722"/>
<path d="M49.333 35.8236C48.9298 34.3082 49.232 32.5896 50.2405 30.6703L57.756 16.186C58.6643 14.4682 59.8576 13.3567 61.3376 12.868C62.8175 12.3629 64.3303 12.4979 65.7757 13.2893C67.222 14.0643 68.1632 15.2259 68.5664 16.7248C68.9532 18.2073 68.6338 19.9078 67.6417 21.7778L60.2609 35.9922C59.286 37.845 58.0582 39.074 56.6128 39.6129C55.1164 40.1855 53.62 40.0843 52.1574 39.2929C50.6947 38.5179 49.7362 37.339 49.333 35.8236Z" fill="#E52722"/>
<path d="M40.2222 9.23009L35.5362 18.158V18.1597L29.1268 30.3684L26.166 36.0087C26.021 36.2846 25.8699 36.5458 25.7136 36.7932C25.0798 37.8017 24.3536 38.5784 23.5428 39.1086C23.5394 39.1103 23.5359 39.1138 23.5308 39.1155C23.447 39.164 23.3607 39.2133 23.2735 39.2582C21.9567 39.9554 20.6123 40.1336 19.2791 39.8058C19.2757 39.8058 19.2722 39.804 19.2688 39.804C18.8638 39.689 18.4614 39.5246 18.0617 39.3084C16.5826 38.5334 15.6405 37.3381 15.2373 35.8218C14.8341 34.3065 15.1363 32.5878 16.1448 30.6685L20.6157 22.1514L22.7191 18.1468L29.1251 5.94504L30.3356 3.63738C31.2431 1.9196 32.4373 0.808154 33.9172 0.319462C35.3963 -0.185663 36.91 -0.050733 38.3554 0.740688C39.8017 1.51568 40.7601 2.67729 41.1461 4.17624C41.5329 5.65788 41.2134 7.35922 40.2213 9.22836" fill="#E52722"/>
</svg>
